<?xml version="1.0" encoding="UTF-8"?>
<svg width="127px" height="136px" viewBox="0 0 127 136" version="1.1" xmlns="http://www.w3.org/2000/svg" xmlns:xlink="http://www.w3.org/1999/xlink">
    <!-- Generator: Sketch 56.3 (81716) - https://sketch.com -->
    <title>Artboard</title>
    <desc>Created with Sketch.</desc>
    <defs>
        <linearGradient x1="115.305118%" y1="8.61384032%" x2="0%" y2="82.3914337%" id="linearGradient-1">
            <stop stop-color="#ED7346" offset="0%"></stop>
            <stop stop-color="#FFCCB7" offset="16.1339766%"></stop>
            <stop stop-color="#DB747D" offset="52.639164%"></stop>
            <stop stop-color="#B02B6A" offset="100%"></stop>
        </linearGradient>
    </defs>
    <g id="Artboard" stroke="none" stroke-width="1" fill="none" fill-rule="evenodd">
        <rect id="Rectangle" x="0" y="0" width="127" height="136"></rect>
        <path d="M48,56 L52,56 L52,39 L48,39 C43.58125,39 40,42.8050662 40,47.4999734 C40,52.1949338 43.58125,56 48,56 Z M23,89 C23,93.41875 26.58125,97 31,97 L35,97 L35,81 L31,81 C26.58125,81 23,84.58125 23,89 Z M66.7279688,72 C62.2733073,72 57.0096354,73.6985467 53.3639844,76.1427968 C50.2006771,78.2633909 47.6830469,80.2855936 40,80.2855936 L40,96.8567808 L47.3410677,98.9242954 C50.6855729,99.8667816 54.1053646,100.622842 57.5889583,100.872704 C61.7603385,101.171763 65.9597917,100.959444 70.0405729,100.070038 C84.0106771,97.025082 89,90.2826802 89,84.4283904 C89,76.1427968 78.2582812,72 66.7279688,72 L66.7279688,72 Z M86.0405729,35.9305482 C81.9597917,35.0411201 77.7603385,34.8275026 73.5889583,35.1278619 C70.1053646,35.3777308 66.6855729,36.1338089 63.3410677,37.0750201 L56,39.1425832 L56,55.7142117 C63.6817708,55.7142117 66.2006771,57.7364619 69.3639844,59.8571058 C73.0096354,62.3014134 78.2733073,64 82.7279688,64 C94.2582813,64 105,59.8571058 105,51.5713175 C105,45.7168384 100.010677,38.9742782 86.0405729,35.9305482 L86.0405729,35.9305482 Z" id="Shape" fill-opacity="0.9" fill="url(#linearGradient-1)" style="mix-blend-mode: darken;"></path>
    </g>
</svg>