<svg width="640" height="512" viewBox="0 0 640 512" fill="none" xmlns="http://www.w3.org/2000/svg">
<path d="M192 159.998H224V31.9976H192C156.65 31.9976 128 60.6476 128 95.9976C128 131.348 156.65 159.998 192 159.998ZM0 415.998C0 451.348 28.65 479.998 64 479.998H96V351.998H64C28.65 351.998 0 380.648 0 415.998ZM337.46 287.998C302.55 287.998 261.3 301.118 232.73 319.998C207.94 336.378 188.21 351.998 128 351.998V479.998L185.53 495.968C211.74 503.248 238.54 509.088 265.84 511.018C298.53 513.328 331.44 511.688 363.42 504.818C472.9 481.298 512 429.218 512 383.998C512 319.998 427.82 287.998 337.46 287.998V287.998ZM491.42 7.18762C459.44 0.317616 426.53 -1.33238 393.84 0.987616C366.54 2.91762 339.74 8.75762 313.53 16.0276L256 31.9976V159.998C316.2 159.998 335.94 175.618 360.73 191.998C389.3 210.878 430.55 223.998 465.46 223.998C555.82 223.998 640 191.998 640 127.998C640 82.7776 600.9 30.6976 491.42 7.18762V7.18762Z" fill="#DA406D"/>
</svg>
