<?xml version="1.0" encoding="UTF-8"?>
<svg width="127px" height="136px" viewBox="0 0 127 136" version="1.1" xmlns="http://www.w3.org/2000/svg" xmlns:xlink="http://www.w3.org/1999/xlink">
    <!-- Generator: Sketch 56.3 (81716) - https://sketch.com -->
    <title>Artboard</title>
    <desc>Created with Sketch.</desc>
    <defs>
        <linearGradient x1="106.947786%" y1="-13.884421%" x2="6.3986808%" y2="100%" id="linearGradient-1">
            <stop stop-color="#ED7346" offset="0%"></stop>
            <stop stop-color="#FFCCB7" offset="16.1339766%"></stop>
            <stop stop-color="#DB747D" offset="52.639164%"></stop>
            <stop stop-color="#B02B6A" offset="100%"></stop>
        </linearGradient>
        <linearGradient x1="50%" y1="0%" x2="50%" y2="100%" id="linearGradient-2">
            <stop stop-color="#FFFFFF" stop-opacity="0.5" offset="0%"></stop>
            <stop stop-color="#FFFFFF" stop-opacity="0.8" offset="100%"></stop>
        </linearGradient>
    </defs>
    <g id="Artboard" stroke="none" stroke-width="1" fill="none" fill-rule="evenodd">
        <rect id="Rectangle" fill-opacity="0.9" fill="url(#linearGradient-1)" style="mix-blend-mode: darken;" x="0" y="0" width="127" height="136"></rect>
        <path d="M44.1,53.374635 L48.95,53.374635 L48.95,33.8746221 L44.1,33.8746221 C38.7422656,33.8746221 34.4,38.2392598 34.4,43.6245981 C34.4,49.0099974 38.7422656,53.374635 44.1,53.374635 Z M15,92.374539 C15,97.7598773 19.3422656,102.124515 24.7,102.124515 L29.55,102.124515 L29.55,82.624563 L24.7,82.624563 C19.3422656,82.624563 15,86.9892007 15,92.374539 Z M66.1462812,72.874587 C60.8552344,72.874587 54.6032812,74.8733321 50.2731406,77.749575 C46.5159062,80.2449595 43.5255781,82.624563 34.4,82.624563 L34.4,102.124515 L43.1193906,104.557439 C47.0918437,105.666498 51.1537187,106.556184 55.291375,106.850206 C60.2459531,107.20212 65.233875,106.952277 70.0808437,105.905678 C86.6739062,102.322561 92.6,94.3885184 92.6,87.499551 C92.6,77.749575 79.8414687,72.874587 66.1462812,72.874587 L66.1462812,72.874587 Z M89.4808437,30.094986 C84.633875,29.0483865 79.6459531,28.7970205 74.691375,29.1504565 C70.5537187,29.4444798 66.4918437,30.3341651 62.5193906,31.4416984 L53.8,33.8746221 L53.8,53.374635 C62.9240625,53.374635 65.9159062,55.7542386 69.6731406,58.249623 C74.0032812,61.125866 80.2552344,63.124611 85.5462812,63.124611 C99.2414687,63.124611 112,58.249623 112,48.4996471 C112,41.6106187 106.073906,33.6765757 89.4808437,30.094986 L89.4808437,30.094986 Z" id="Shape" fill="url(#linearGradient-2)" fill-rule="nonzero"></path>
    </g>
</svg>